<?xml version="1.0" encoding="UTF-8" standalone="no"?>
<!-- Created with Inkscape (http://www.inkscape.org/) -->

<svg
   xmlns:dc="http://purl.org/dc/elements/1.1/"
   xmlns:cc="http://creativecommons.org/ns#"
   xmlns:rdf="http://www.w3.org/1999/02/22-rdf-syntax-ns#"
   xmlns:svg="http://www.w3.org/2000/svg"
   xmlns="http://www.w3.org/2000/svg"
   xmlns:sodipodi="http://sodipodi.sourceforge.net/DTD/sodipodi-0.dtd"
   xmlns:inkscape="http://www.inkscape.org/namespaces/inkscape"
   id="svg2"
   version="1.1"
   inkscape:version="0.91 r13725"
   xml:space="preserve"
   width="751"
   height="751"
   viewBox="0 0 751 751"
   sodipodi:docname="MarkdownReaderIcon.svg"
   inkscape:export-filename="/home/paulo/Downloads/eyeglasses/MarkdownReaderIcon.png"
   inkscape:export-xdpi="30.68"
   inkscape:export-ydpi="30.68"><metadata
     id="metadata8"><rdf:RDF><cc:Work
         rdf:about=""><dc:format>image/svg+xml</dc:format><dc:type
           rdf:resource="http://purl.org/dc/dcmitype/StillImage" /><dc:title></dc:title></cc:Work></rdf:RDF></metadata><defs
     id="defs6"><clipPath
       clipPathUnits="userSpaceOnUse"
       id="clipPath16"><path
         d="M 0,0 800,0 800,800 0,800 0,0 Z"
         id="path18"
         inkscape:connector-curvature="0" /></clipPath><linearGradient
       x1="0"
       y1="0"
       x2="1"
       y2="0"
       gradientUnits="userSpaceOnUse"
       gradientTransform="matrix(-3.42e-5,-783.38849,-783.38849,3.42e-5,399.99951,834.39307)"
       spreadMethod="pad"
       id="linearGradient24"><stop
         style="stop-opacity:1;stop-color:#2b596a"
         offset="0"
         id="stop26" /><stop
         style="stop-opacity:1;stop-color:#3a808d"
         offset="0.52"
         id="stop28" /><stop
         style="stop-opacity:1;stop-color:#8cb8c1"
         offset="0.75"
         id="stop30" /><stop
         style="stop-opacity:1;stop-color:#3b7c90"
         offset="0.765"
         id="stop32" /><stop
         style="stop-opacity:1;stop-color:#6ba1ac"
         offset="0.97018104"
         id="stop34" /><stop
         style="stop-opacity:1;stop-color:#6ba1ac"
         offset="1"
         id="stop36" /></linearGradient><clipPath
       clipPathUnits="userSpaceOnUse"
       id="clipPath44"><path
         d="M 0,800 800,800 800,0 0,0 0,800 Z"
         id="path46"
         inkscape:connector-curvature="0" /></clipPath><clipPath
       clipPathUnits="userSpaceOnUse"
       id="clipPath52"><path
         d="M 0,800 800,800 800,0 0,0 0,800 Z"
         id="path54"
         inkscape:connector-curvature="0" /></clipPath><clipPath
       clipPathUnits="userSpaceOnUse"
       id="clipPath56"><path
         d="M 800,0 0,0 0,800 800,800 800,0 Z"
         id="path58"
         inkscape:connector-curvature="0" /></clipPath><radialGradient
       fx="0"
       fy="0"
       cx="0"
       cy="0"
       r="1"
       gradientUnits="userSpaceOnUse"
       gradientTransform="matrix(652.63837,0,0,-498.38007,411.11133,468.51953)"
       spreadMethod="pad"
       id="radialGradient60"><stop
         style="stop-opacity:1;stop-color:#f6f6ef"
         offset="0"
         id="stop62" /><stop
         style="stop-opacity:1;stop-color:#f6f6ef"
         offset="0.35755356"
         id="stop64" /><stop
         style="stop-opacity:1;stop-color:#818386"
         offset="1"
         id="stop66" /></radialGradient><clipPath
       clipPathUnits="userSpaceOnUse"
       id="clipPath86"><path
         d="M 0,800 800,800 800,0 0,0 0,800 Z"
         id="path88"
         inkscape:connector-curvature="0" /></clipPath><clipPath
       clipPathUnits="userSpaceOnUse"
       id="clipPath218"><path
         d="m 109.067,342.973 c -0.032,-0.544 -0.111,-1.075 -0.09,-1.617 l 0,0 c 0,0 13.267,-9.227 19.033,-13.842 l 0,0 c 5.771,-4.616 10.817,0.286 19.613,13.266 l 0,0 c 6.081,8.971 10.96,0.576 17.304,-5.772 l 0,0 c 6.347,-6.344 46.668,-53.313 52.636,-60.562 l 0,0 c 15.43,-18.75 24.017,-3.713 12.833,17.879 l 0,0 c -8.361,16.153 -58.546,60.565 -68.352,68.066 l 0,0 c -9.805,7.498 -14.995,6.923 -19.61,2.883 l 0,0 c -4.095,-3.576 -8.175,7.78 -9.05,10.41 l 0,0 c -13.719,-8.019 -20.934,-18.725 -24.317,-30.711"
         id="path220"
         inkscape:connector-curvature="0" /></clipPath><linearGradient
       x1="0"
       y1="0"
       x2="1"
       y2="0"
       gradientUnits="userSpaceOnUse"
       gradientTransform="matrix(-5.8e-6,131.56934,131.56934,5.8e-6,172.229,259.83301)"
       spreadMethod="pad"
       id="linearGradient226"><stop
         style="stop-opacity:1;stop-color:#6c6365"
         offset="0"
         id="stop228" /><stop
         style="stop-opacity:1;stop-color:#231f20"
         offset="1"
         id="stop230" /></linearGradient><clipPath
       clipPathUnits="userSpaceOnUse"
       id="clipPath238"><path
         d="m 660.016,363.466 c -4.615,4.04 -9.807,4.615 -19.616,-2.883 l 0,0 c -9.801,-7.498 -59.986,-51.913 -68.351,-68.067 l 0,0 c -11.18,-21.593 -2.597,-36.627 12.836,-17.881 l 0,0 c 5.965,7.248 46.289,54.22 52.633,60.568 l 0,0 c 6.345,6.345 11.227,14.74 17.308,5.766 l 0,0 c 8.791,-12.978 13.841,-17.878 19.61,-13.267 l 0,0 c 5.769,4.616 19.032,13.846 19.032,13.846 l 0,0 c 0.022,0.542 -0.058,1.077 -0.087,1.62 l 0,0 c -3.385,11.978 -10.601,22.688 -24.316,30.707 l 0,0 c -0.875,-2.633 -4.96,-13.987 -9.049,-10.409"
         id="path240"
         inkscape:connector-curvature="0" /></clipPath><linearGradient
       x1="0"
       y1="0"
       x2="1"
       y2="0"
       gradientUnits="userSpaceOnUse"
       gradientTransform="matrix(-5.8e-6,131.56934,131.56934,5.8e-6,630.2168,260.02441)"
       spreadMethod="pad"
       id="linearGradient246"><stop
         style="stop-opacity:1;stop-color:#6c6365"
         offset="0"
         id="stop248" /><stop
         style="stop-opacity:1;stop-color:#231f20"
         offset="1"
         id="stop250" /></linearGradient><clipPath
       clipPathUnits="userSpaceOnUse"
       id="clipPath258"><path
         d="M 0,800 800,800 800,0 0,0 0,800 Z"
         id="path260"
         inkscape:connector-curvature="0" /></clipPath><clipPath
       clipPathUnits="userSpaceOnUse"
       id="clipPath266"><path
         d="m 108.035,387.207 249.135,0 0,-179.868 -249.135,0 0,179.868 z"
         id="path268"
         inkscape:connector-curvature="0" /></clipPath><clipPath
       clipPathUnits="userSpaceOnUse"
       id="clipPath270"><path
         d="m 341.62,365.47 c 8.423,-4.319 23.716,-20.899 10.167,-68.338 -13.557,-47.436 -25.42,-89.793 -115.213,-89.793 -89.793,0 -115.864,22.881 -123.676,71.723 -6.916,43.233 -20.103,98.853 73.792,106.926 76.613,6.586 145.023,-15.436 154.93,-20.518"
         id="path272"
         inkscape:connector-curvature="0" /></clipPath><linearGradient
       x1="0"
       y1="0"
       x2="1"
       y2="0"
       gradientUnits="userSpaceOnUse"
       gradientTransform="matrix(-8.1e-6,-185.1617,-185.1617,8.1e-6,232.60254,377.30859)"
       spreadMethod="pad"
       id="linearGradient274"><stop
         style="stop-opacity:1;stop-color:#2889b1"
         offset="0"
         id="stop276" /><stop
         style="stop-opacity:1;stop-color:#2889b1"
         offset="0.04"
         id="stop278" /><stop
         style="stop-opacity:1;stop-color:#639dc0"
         offset="0.19"
         id="stop280" /><stop
         style="stop-opacity:1;stop-color:#ffffff"
         offset="0.3517346"
         id="stop282" /><stop
         style="stop-opacity:1;stop-color:#ffffff"
         offset="0.995"
         id="stop284" /><stop
         style="stop-opacity:1;stop-color:#ffffff"
         offset="1"
         id="stop286" /></linearGradient><clipPath
       clipPathUnits="userSpaceOnUse"
       id="clipPath306"><path
         d="m 444.849,387.207 249.135,0 0,-179.868 -249.135,0 0,179.868 z"
         id="path308"
         inkscape:connector-curvature="0" /></clipPath><clipPath
       clipPathUnits="userSpaceOnUse"
       id="clipPath310"><path
         d="m 460.398,365.47 c -8.423,-4.319 -23.715,-20.899 -10.167,-68.338 13.556,-47.436 25.42,-89.793 115.213,-89.793 89.793,0 115.864,22.881 123.676,71.723 6.919,43.233 20.103,98.853 -73.792,106.926 -76.613,6.586 -145.022,-15.436 -154.93,-20.518"
         id="path312"
         inkscape:connector-curvature="0" /></clipPath><linearGradient
       x1="0"
       y1="0"
       x2="1"
       y2="0"
       gradientUnits="userSpaceOnUse"
       gradientTransform="matrix(-8.1e-6,-185.1617,-185.1617,8.1e-6,569.41602,377.30859)"
       spreadMethod="pad"
       id="linearGradient314"><stop
         style="stop-opacity:1;stop-color:#2889b1"
         offset="0"
         id="stop316" /><stop
         style="stop-opacity:1;stop-color:#2889b1"
         offset="0.04"
         id="stop318" /><stop
         style="stop-opacity:1;stop-color:#639dc0"
         offset="0.19"
         id="stop320" /><stop
         style="stop-opacity:1;stop-color:#ffffff"
         offset="0.3517346"
         id="stop322" /><stop
         style="stop-opacity:1;stop-color:#ffffff"
         offset="0.995"
         id="stop324" /><stop
         style="stop-opacity:1;stop-color:#ffffff"
         offset="1"
         id="stop326" /></linearGradient><clipPath
       clipPathUnits="userSpaceOnUse"
       id="clipPath346"><path
         d="m 112.752,382.209 239.699,0 0,-126.961 -239.699,0 0,126.961 z"
         id="path348"
         inkscape:connector-curvature="0" /></clipPath><clipPath
       clipPathUnits="userSpaceOnUse"
       id="clipPath350"><path
         d="m 123.445,255.248 c 37.688,32.125 86.234,51.732 138.701,51.732 29.456,0 57.686,-6.173 83.449,-17.27 0.556,1.936 1.113,3.877 1.675,5.838 13.038,45.644 -1.675,61.592 -9.777,65.748 -9.535,4.89 -75.355,26.077 -149.063,19.74 -90.34,-7.765 -77.655,-61.284 -70.996,-102.871 1.349,-8.449 3.276,-16.07 6.011,-22.917"
         id="path352"
         inkscape:connector-curvature="0" /></clipPath><linearGradient
       x1="0"
       y1="0"
       x2="1"
       y2="0"
       gradientUnits="userSpaceOnUse"
       gradientTransform="matrix(-5.5e-6,124.74458,124.74458,5.5e-6,232.60107,255.98242)"
       spreadMethod="pad"
       id="linearGradient354"><stop
         style="stop-opacity:1;stop-color:#000000"
         offset="0"
         id="stop356" /><stop
         style="stop-opacity:1;stop-color:#000000"
         offset="0.045"
         id="stop358" /><stop
         style="stop-opacity:1;stop-color:#000000"
         offset="0.79914875"
         id="stop360" /><stop
         style="stop-opacity:1;stop-color:#ffffff"
         offset="0.995"
         id="stop362" /><stop
         style="stop-opacity:1;stop-color:#ffffff"
         offset="1"
         id="stop364" /></linearGradient><clipPath
       clipPathUnits="userSpaceOnUse"
       id="clipPath384"><path
         d="m 448.978,383.024 240.872,0 0,-121.96 -240.872,0 0,121.96 z"
         id="path386"
         inkscape:connector-curvature="0" /></clipPath><clipPath
       clipPathUnits="userSpaceOnUse"
       id="clipPath388"><path
         d="m 465.763,261.064 c 38.262,33.796 88.212,54.542 142.31,54.542 28.284,0 55.41,-5.71 80.361,-15.939 4.802,36.947 1.319,75.647 -74.628,82.18 -74.071,6.366 -140.216,-14.927 -149.794,-19.839 -8.142,-4.177 -22.931,-20.204 -9.827,-66.07 3.483,-12.203 6.868,-24.044 11.578,-34.874"
         id="path390"
         inkscape:connector-curvature="0" /></clipPath><linearGradient
       x1="0"
       y1="0"
       x2="1"
       y2="0"
       gradientUnits="userSpaceOnUse"
       gradientTransform="matrix(-5e-6,114.49419,114.49419,5e-6,569.41406,271.1748)"
       spreadMethod="pad"
       id="linearGradient392"><stop
         style="stop-opacity:1;stop-color:#000000"
         offset="0"
         id="stop394" /><stop
         style="stop-opacity:1;stop-color:#000000"
         offset="0.045"
         id="stop396" /><stop
         style="stop-opacity:1;stop-color:#000000"
         offset="0.79914875"
         id="stop398" /><stop
         style="stop-opacity:1;stop-color:#ffffff"
         offset="0.995"
         id="stop400" /><stop
         style="stop-opacity:1;stop-color:#ffffff"
         offset="1"
         id="stop402" /></linearGradient><clipPath
       clipPathUnits="userSpaceOnUse"
       id="clipPath422"><path
         d="m 576.324,404.419 c -44.221,-0.386 -81.908,-9.225 -117.669,-21.15 l 0,0 c -22.8,-7.6 -41.048,-6.62 -56.839,-6.547 l 0,0 0,0.011 c -0.264,0 -0.543,-0.005 -0.807,-0.005 l 0,0 c -0.264,0 -0.539,0.005 -0.806,0.005 l 0,0 0,-0.011 c -15.792,-0.073 -34.035,-1.053 -56.84,6.547 l 0,0 c -35.76,11.925 -73.449,20.764 -117.669,21.15 l 0,0 c -68.638,0.597 -129.21,-4.035 -144.205,-6.343 l 0,0 c -15,-2.307 -12.117,-12.113 -13.267,-27.687 l 0,0 c -1.154,-15.575 1.15,-27.113 12.109,-34.611 l 0,0 c 10.963,-7.498 2.887,-42.682 19.04,-91.135 l 0,0 c 16.149,-48.456 69.791,-53.071 125.745,-55.375 l 0,0 c 55.949,-2.307 108.254,6.149 129.398,57.871 l 0,0 c 15.863,38.795 23.499,81.2 46.495,82.198 l 0,0 c 22.997,-0.998 30.632,-43.403 46.495,-82.198 l 0,0 c 21.144,-51.722 73.449,-60.178 129.399,-57.871 l 0,0 c 55.953,2.304 109.595,6.919 125.744,55.375 l 0,0 c 16.154,48.453 8.078,83.637 19.04,91.135 l 0,0 c 10.955,7.498 13.263,19.036 12.109,34.611 l 0,0 c -1.154,15.574 1.733,25.38 -13.267,27.687 l 0,0 c -14.101,2.17 -68.507,6.396 -132.021,6.396 l 0,0 c -4.028,0 -8.091,-0.017 -12.184,-0.053 M 450.231,297.131 c -13.548,47.44 1.744,64.02 10.168,68.338 l 0,0 c 9.907,5.083 78.316,27.106 154.929,20.519 l 0,0 c 93.894,-8.073 80.711,-63.694 73.792,-106.927 l 0,0 C 681.307,230.22 655.237,207.339 565.444,207.339 l 0,0 c -89.792,0 -101.657,42.357 -115.213,89.792 m -337.333,-18.07 c -6.916,43.233 -20.103,98.854 73.792,106.927 l 0,0 c 76.613,6.587 145.023,-15.436 154.929,-20.519 l 0,0 c 8.424,-4.318 23.717,-20.898 10.168,-68.338 l 0,0 c -13.556,-47.435 -25.42,-89.792 -115.213,-89.792 l 0,0 c -89.793,0 -115.863,22.881 -123.676,71.722"
         id="path424"
         inkscape:connector-curvature="0" /></clipPath><linearGradient
       x1="0"
       y1="0"
       x2="1"
       y2="0"
       gradientUnits="userSpaceOnUse"
       gradientTransform="matrix(-4.4e-6,-101.52312,-101.52312,4.4e-6,401.00977,383.65527)"
       spreadMethod="pad"
       id="linearGradient430"><stop
         style="stop-opacity:1;stop-color:#231f20"
         offset="0"
         id="stop432" /><stop
         style="stop-opacity:1;stop-color:#231f20"
         offset="0.0470362"
         id="stop434" /><stop
         style="stop-opacity:1;stop-color:#494344"
         offset="0.495"
         id="stop436" /><stop
         style="stop-opacity:1;stop-color:#494344"
         offset="0.685"
         id="stop438" /><stop
         style="stop-opacity:1;stop-color:#231f20"
         offset="1"
         id="stop440" /></linearGradient><clipPath
       clipPathUnits="userSpaceOnUse"
       id="clipPath448"><path
         d="M 0,800 800,800 800,0 0,0 0,800 Z"
         id="path450"
         inkscape:connector-curvature="0" /></clipPath><clipPath
       clipPathUnits="userSpaceOnUse"
       id="clipPath456"><path
         d="m 67.9536,404.473 666.1104,0 0,-116.347 -666.1104,0 0,116.347 z"
         id="path458"
         inkscape:connector-curvature="0" /></clipPath><clipPath
       clipPathUnits="userSpaceOnUse"
       id="clipPath460"><path
         d="m 374.935,302.044 c 6.807,15.769 14.489,26.79 26.075,27.293 12.824,-0.558 20.873,-14.012 28.236,-32.524 5.541,5.455 11.364,10.613 17.434,15.481 -6.526,35.894 6.271,49.352 13.718,53.176 9.908,5.082 78.317,27.104 154.93,20.518 56.055,-4.821 73.937,-26.588 77.781,-52.546 7.73,-4.33 15.174,-9.115 22.325,-14.295 1.023,8.324 2.542,14.096 6.253,16.631 10.956,7.498 13.263,19.036 12.109,34.611 -1.153,15.574 1.733,25.38 -13.267,27.687 -14.995,2.308 -75.567,6.941 -144.205,6.344 -44.22,-0.387 -81.908,-9.227 -117.669,-21.151 -22.801,-7.6 -41.048,-6.62 -56.84,-6.547 l 0,0.01 c -0.263,0 -0.542,-0.003 -0.805,-0.003 -0.265,0 -0.54,0.003 -0.807,0.003 l 0,-0.01 c -15.792,-0.073 -34.036,-1.053 -56.84,6.547 -35.76,11.924 -73.448,20.764 -117.669,21.151 -68.637,0.597 -129.21,-4.036 -144.205,-6.344 -15,-2.307 -12.117,-12.113 -13.267,-27.687 -1.154,-15.575 1.15,-27.113 12.109,-34.611 7.303,-4.998 6.182,-22.334 9.382,-47.652 6.164,5.689 12.638,11.031 19.398,16.012 -4.326,37.236 1.183,75.282 77.579,81.85 76.613,6.586 145.023,-15.436 154.93,-20.518 7.252,-3.719 19.542,-16.574 14.199,-50.312 6.601,-4.04 12.971,-8.434 19.116,-13.114"
         id="path462"
         inkscape:connector-curvature="0" /></clipPath><linearGradient
       x1="0"
       y1="0"
       x2="1"
       y2="0"
       gradientUnits="userSpaceOnUse"
       gradientTransform="matrix(-5.7e-6,-130.36467,-130.36467,5.7e-6,401.00977,383.65527)"
       spreadMethod="pad"
       id="linearGradient464"><stop
         style="stop-opacity:1;stop-color:#000000"
         offset="0"
         id="stop466" /><stop
         style="stop-opacity:1;stop-color:#000000"
         offset="0.045"
         id="stop468" /><stop
         style="stop-opacity:1;stop-color:#000000"
         offset="0.79914875"
         id="stop470" /><stop
         style="stop-opacity:1;stop-color:#ffffff"
         offset="0.995"
         id="stop472" /><stop
         style="stop-opacity:1;stop-color:#ffffff"
         offset="1"
         id="stop474" /></linearGradient><clipPath
       clipPathUnits="userSpaceOnUse"
       id="clipPath494"><path
         d="m 456.901,367.654 c -8.691,-4.455 -24.479,-21.564 -10.489,-70.523 l 0,0 c 13.987,-48.961 26.229,-92.675 118.902,-92.675 l 0,0 c 92.679,0 119.582,23.616 127.648,74.024 l 0,0 c 7.14,44.614 20.746,102.021 -76.159,110.355 l 0,0 c -10.13,0.871 -20.129,1.257 -29.872,1.257 l 0,0 c -66.307,0.001 -121.112,-17.865 -130.03,-22.438 m -6.67,-70.523 c -13.548,47.44 1.744,64.02 10.168,68.338 l 0,0 c 9.907,5.083 78.316,27.106 154.929,20.519 l 0,0 c 93.894,-8.073 80.711,-63.694 73.792,-106.927 l 0,0 C 681.307,230.22 655.237,207.339 565.444,207.339 l 0,0 c -89.792,0 -101.657,42.357 -115.213,89.792"
         id="path496"
         inkscape:connector-curvature="0" /></clipPath><linearGradient
       x1="0"
       y1="0"
       x2="1"
       y2="0"
       gradientUnits="userSpaceOnUse"
       gradientTransform="matrix(297.64172,-339.75043,-339.75043,-297.64172,378.05127,528.67822)"
       spreadMethod="pad"
       id="linearGradient502"><stop
         style="stop-opacity:1;stop-color:#201a1c"
         offset="0"
         id="stop504" /><stop
         style="stop-opacity:1;stop-color:#201a1c"
         offset="0.0470362"
         id="stop506" /><stop
         style="stop-opacity:1;stop-color:#5b5153"
         offset="0.495"
         id="stop508" /><stop
         style="stop-opacity:1;stop-color:#5b5153"
         offset="0.685"
         id="stop510" /><stop
         style="stop-opacity:1;stop-color:#201a1c"
         offset="1"
         id="stop512" /></linearGradient><clipPath
       clipPathUnits="userSpaceOnUse"
       id="clipPath520"><path
         d="M 185.156,388.835 C 88.252,380.501 101.859,323.094 108.999,278.48 l 0,0 c 8.066,-50.408 34.968,-74.024 127.643,-74.024 l 0,0 c 92.676,0 104.92,43.714 118.907,92.675 l 0,0 c 13.986,48.959 -1.798,66.068 -10.489,70.523 l 0,0 c -8.918,4.573 -63.73,22.437 -130.031,22.438 l 0,0 c -9.747,0 -19.738,-0.386 -29.873,-1.257 M 112.84,279.061 c -6.919,43.233 -20.103,98.854 73.792,106.927 l 0,0 c 76.613,6.587 145.023,-15.436 154.93,-20.519 l 0,0 c 8.424,-4.318 23.716,-20.898 10.167,-68.338 l 0,0 c -13.556,-47.435 -25.42,-89.792 -115.213,-89.792 l 0,0 c -89.793,0 -115.864,22.881 -123.676,71.722"
         id="path522"
         inkscape:connector-curvature="0" /></clipPath><linearGradient
       x1="0"
       y1="0"
       x2="1"
       y2="0"
       gradientUnits="userSpaceOnUse"
       gradientTransform="matrix(-297.64172,-339.75043,339.75043,-297.64172,423.9082,528.67773)"
       spreadMethod="pad"
       id="linearGradient528"><stop
         style="stop-opacity:1;stop-color:#201a1c"
         offset="0"
         id="stop530" /><stop
         style="stop-opacity:1;stop-color:#201a1c"
         offset="0.0470362"
         id="stop532" /><stop
         style="stop-opacity:1;stop-color:#5b5153"
         offset="0.495"
         id="stop534" /><stop
         style="stop-opacity:1;stop-color:#5b5153"
         offset="0.685"
         id="stop536" /><stop
         style="stop-opacity:1;stop-color:#201a1c"
         offset="1"
         id="stop538" /></linearGradient><clipPath
       clipPathUnits="userSpaceOnUse"
       id="clipPath546"><path
         d="M 0,800 800,800 800,0 0,0 0,800 Z"
         id="path548"
         inkscape:connector-curvature="0" /></clipPath><clipPath
       clipPathUnits="userSpaceOnUse"
       id="clipPath554"><path
         d="m 113.452,382.595 193.08,0 0,-164.409 -193.08,0 0,164.409 z"
         id="path556"
         inkscape:connector-curvature="0" /></clipPath><clipPath
       clipPathUnits="userSpaceOnUse"
       id="clipPath558"><path
         d="m 306.532,371.083 c -27.503,7.002 -71.405,14.417 -118.605,10.358 -88.904,-7.645 -76.418,-60.315 -69.871,-101.244 5.186,-32.425 18.909,-52.749 55.921,-62.011 7.378,73.712 62.044,135.153 132.555,152.897"
         id="path560"
         inkscape:connector-curvature="0" /></clipPath><linearGradient
       x1="0"
       y1="0"
       x2="1"
       y2="0"
       gradientUnits="userSpaceOnUse"
       gradientTransform="matrix(144.18373,252.32135,252.32135,-144.18373,104.07617,169.19922)"
       spreadMethod="pad"
       id="linearGradient562"><stop
         style="stop-opacity:1;stop-color:#000000"
         offset="0"
         id="stop564" /><stop
         style="stop-opacity:1;stop-color:#000000"
         offset="0.045"
         id="stop566" /><stop
         style="stop-opacity:1;stop-color:#000000"
         offset="0.79914875"
         id="stop568" /><stop
         style="stop-opacity:1;stop-color:#ffffff"
         offset="0.995"
         id="stop570" /><stop
         style="stop-opacity:1;stop-color:#ffffff"
         offset="1"
         id="stop572" /></linearGradient><clipPath
       clipPathUnits="userSpaceOnUse"
       id="clipPath592"><path
         d="m 449.318,383.171 180.539,0 0,-163.202 -180.539,0 0,163.202 z"
         id="path594"
         inkscape:connector-curvature="0" /></clipPath><clipPath
       clipPathUnits="userSpaceOnUse"
       id="clipPath596"><path
         d="m 629.857,379.568 c -5.53,1.035 -11.508,1.873 -18.102,2.442 -73,6.275 -138.184,-14.71 -147.62,-19.553 -8.026,-4.12 -22.599,-19.911 -9.686,-65.115 9.414,-32.965 18.012,-63.332 55.143,-77.373 3.11,73.546 53.06,136.589 120.265,159.599"
         id="path598"
         inkscape:connector-curvature="0" /></clipPath><linearGradient
       x1="0"
       y1="0"
       x2="1"
       y2="0"
       gradientUnits="userSpaceOnUse"
       gradientTransform="matrix(149.50218,274.8201,274.8201,-149.50218,425.60449,151.80859)"
       spreadMethod="pad"
       id="linearGradient600"><stop
         style="stop-opacity:1;stop-color:#000000"
         offset="0"
         id="stop602" /><stop
         style="stop-opacity:1;stop-color:#000000"
         offset="0.045"
         id="stop604" /><stop
         style="stop-opacity:1;stop-color:#000000"
         offset="0.79914875"
         id="stop606" /><stop
         style="stop-opacity:1;stop-color:#ffffff"
         offset="0.995"
         id="stop608" /><stop
         style="stop-opacity:1;stop-color:#ffffff"
         offset="1"
         id="stop610" /></linearGradient><clipPath
       clipPathUnits="userSpaceOnUse"
       id="clipPath630"><path
         d="m 373.576,321.358 c -7.177,-15.589 -12.219,-50.202 -13.507,-59.743 l 0,0 c 12.432,34.175 20.787,66.847 40.94,67.722 l 0,0 c 18.801,-0.817 27.341,-29.316 38.495,-60.89 l 0,0 c -3.187,21.711 -10.467,55.489 -22.092,66.467 l 0,0 c -5.204,4.915 -10.892,7.06 -16.47,7.06 l 0,0 c -11.116,0 -21.799,-8.517 -27.366,-20.616"
         id="path632"
         inkscape:connector-curvature="0" /></clipPath><linearGradient
       x1="0"
       y1="0"
       x2="1"
       y2="0"
       gradientUnits="userSpaceOnUse"
       gradientTransform="matrix(-7.3e-6,167.18126,167.18126,7.3e-6,399.78662,259.35254)"
       spreadMethod="pad"
       id="linearGradient638"><stop
         style="stop-opacity:1;stop-color:#201a1c"
         offset="0"
         id="stop640" /><stop
         style="stop-opacity:1;stop-color:#201a1c"
         offset="0.0470362"
         id="stop642" /><stop
         style="stop-opacity:1;stop-color:#5b5153"
         offset="0.495"
         id="stop644" /><stop
         style="stop-opacity:1;stop-color:#5b5153"
         offset="0.685"
         id="stop646" /><stop
         style="stop-opacity:1;stop-color:#201a1c"
         offset="1"
         id="stop648" /></linearGradient><clipPath
       clipPathUnits="userSpaceOnUse"
       id="clipPath656"><path
         d="m 458.655,383.269 c -22.8,-7.6 -41.048,-6.62 -56.839,-6.547 l 0,0 0,0.011 c -0.264,0 -0.543,-0.005 -0.807,-0.005 l 0,0 c -0.264,0 -0.539,0.005 -0.806,0.005 l 0,0 0,-0.011 c -15.792,-0.073 -34.035,-1.053 -56.84,6.547 l 0,0 c -6.463,2.155 -13.017,4.163 -19.629,6.083 l 0,0 c 9.259,-6.087 30.672,-17.792 66.084,-24.154 l 0,0 c 38.492,-6.919 75.947,11.071 93.805,25.691 l 0,0 c -8.457,-2.344 -16.769,-4.886 -24.968,-7.62"
         id="path658"
         inkscape:connector-curvature="0" /></clipPath><linearGradient
       x1="0"
       y1="0"
       x2="1"
       y2="0"
       gradientUnits="userSpaceOnUse"
       gradientTransform="matrix(-4.1e-6,94.359512,94.359512,4.1e-6,403.67871,342.50781)"
       spreadMethod="pad"
       id="linearGradient664"><stop
         style="stop-opacity:1;stop-color:#201a1c"
         offset="0"
         id="stop666" /><stop
         style="stop-opacity:1;stop-color:#201a1c"
         offset="0.0470362"
         id="stop668" /><stop
         style="stop-opacity:1;stop-color:#5b5153"
         offset="0.495"
         id="stop670" /><stop
         style="stop-opacity:1;stop-color:#5b5153"
         offset="0.685"
         id="stop672" /><stop
         style="stop-opacity:1;stop-color:#201a1c"
         offset="1"
         id="stop674" /></linearGradient><clipPath
       clipPathUnits="userSpaceOnUse"
       id="clipPath682"><path
         d="M 0,800 800,800 800,0 0,0 0,800 Z"
         id="path684"
         inkscape:connector-curvature="0" /></clipPath><clipPath
       clipPathUnits="userSpaceOnUse"
       id="clipPath690"><path
         d="m 30.3022,216.598 367.8168,0 0,-55.238 -367.8168,0 0,55.238 z"
         id="path692"
         inkscape:connector-curvature="0" /></clipPath><clipPath
       clipPathUnits="userSpaceOnUse"
       id="clipPath694"><path
         d="m 398.119,188.979 c 0,-15.255 -82.339,-27.619 -183.912,-27.619 -101.569,0 -183.905,12.364 -183.905,27.619 0,15.264 82.336,27.619 183.905,27.619 101.573,0 183.912,-12.355 183.912,-27.619"
         id="path696"
         inkscape:connector-curvature="0" /></clipPath><radialGradient
       fx="0"
       fy="0"
       cx="0"
       cy="0"
       r="1"
       gradientUnits="userSpaceOnUse"
       gradientTransform="matrix(182.55309,0,0,-25.601063,222.75977,190.24609)"
       spreadMethod="pad"
       id="radialGradient698"><stop
         style="stop-opacity:1;stop-color:#061c24"
         offset="0"
         id="stop700" /><stop
         style="stop-opacity:1;stop-color:#ffffff"
         offset="0.49844754"
         id="stop702" /><stop
         style="stop-opacity:1;stop-color:#ffffff"
         offset="0.96"
         id="stop704" /><stop
         style="stop-opacity:1;stop-color:#ffffff"
         offset="1"
         id="stop706" /></radialGradient><clipPath
       clipPathUnits="userSpaceOnUse"
       id="clipPath726"><path
         d="m 394.191,216.598 367.817,0 0,-55.238 -367.817,0 0,55.238 z"
         id="path728"
         inkscape:connector-curvature="0" /></clipPath><clipPath
       clipPathUnits="userSpaceOnUse"
       id="clipPath730"><path
         d="m 762.008,188.979 c 0,-15.255 -82.338,-27.619 -183.912,-27.619 -101.57,0 -183.905,12.364 -183.905,27.619 0,15.264 82.335,27.619 183.905,27.619 101.574,0 183.912,-12.355 183.912,-27.619"
         id="path732"
         inkscape:connector-curvature="0" /></clipPath><radialGradient
       fx="0"
       fy="0"
       cx="0"
       cy="0"
       r="1"
       gradientUnits="userSpaceOnUse"
       gradientTransform="matrix(182.5549,0,0,-25.601318,586.64648,190.24609)"
       spreadMethod="pad"
       id="radialGradient734"><stop
         style="stop-opacity:1;stop-color:#061c24"
         offset="0"
         id="stop736" /><stop
         style="stop-opacity:1;stop-color:#ffffff"
         offset="0.49844754"
         id="stop738" /><stop
         style="stop-opacity:1;stop-color:#ffffff"
         offset="0.96"
         id="stop740" /><stop
         style="stop-opacity:1;stop-color:#ffffff"
         offset="1"
         id="stop742" /></radialGradient><filter
       style="color-interpolation-filters:sRGB"
       inkscape:label="Drop Shadow"
       id="filter7123"><feFlood
         flood-opacity="0.498039"
         flood-color="rgb(0,0,0)"
         result="flood"
         id="feFlood7125" /><feComposite
         in="flood"
         in2="SourceGraphic"
         operator="in"
         result="composite1"
         id="feComposite7127" /><feGaussianBlur
         in="composite1"
         stdDeviation="2.8"
         result="blur"
         id="feGaussianBlur7129" /><feOffset
         dx="4.7"
         dy="-6.9"
         result="offset"
         id="feOffset7131" /><feComposite
         in="SourceGraphic"
         in2="offset"
         operator="over"
         result="composite2"
         id="feComposite7133" /></filter><filter
       style="color-interpolation-filters:sRGB"
       inkscape:label="Drop Shadow"
       id="filter7135"><feFlood
         flood-opacity="0.498039"
         flood-color="rgb(0,0,0)"
         result="flood"
         id="feFlood7137" /><feComposite
         in="flood"
         in2="SourceGraphic"
         operator="in"
         result="composite1"
         id="feComposite7139" /><feGaussianBlur
         in="composite1"
         stdDeviation="2.8"
         result="blur"
         id="feGaussianBlur7141" /><feOffset
         dx="4.7"
         dy="-6.9"
         result="offset"
         id="feOffset7143" /><feComposite
         in="SourceGraphic"
         in2="offset"
         operator="over"
         result="composite2"
         id="feComposite7145" /></filter><filter
       style="color-interpolation-filters:sRGB"
       inkscape:label="Drop Shadow"
       id="filter7147"><feFlood
         flood-opacity="0.498039"
         flood-color="rgb(0,0,0)"
         result="flood"
         id="feFlood7149" /><feComposite
         in="flood"
         in2="SourceGraphic"
         operator="in"
         result="composite1"
         id="feComposite7151" /><feGaussianBlur
         in="composite1"
         stdDeviation="2.8"
         result="blur"
         id="feGaussianBlur7153" /><feOffset
         dx="4.7"
         dy="-6.9"
         result="offset"
         id="feOffset7155" /><feComposite
         in="SourceGraphic"
         in2="offset"
         operator="over"
         result="composite2"
         id="feComposite7157" /></filter><filter
       style="color-interpolation-filters:sRGB"
       inkscape:label="Drop Shadow"
       id="filter7159"><feFlood
         flood-opacity="0.498039"
         flood-color="rgb(0,0,0)"
         result="flood"
         id="feFlood7161" /><feComposite
         in="flood"
         in2="SourceGraphic"
         operator="in"
         result="composite1"
         id="feComposite7163" /><feGaussianBlur
         in="composite1"
         stdDeviation="2.8"
         result="blur"
         id="feGaussianBlur7165" /><feOffset
         dx="4.7"
         dy="-6.9"
         result="offset"
         id="feOffset7167" /><feComposite
         in="SourceGraphic"
         in2="offset"
         operator="over"
         result="composite2"
         id="feComposite7169" /></filter><filter
       style="color-interpolation-filters:sRGB"
       inkscape:label="Drop Shadow"
       id="filter7171"><feFlood
         flood-opacity="0.498039"
         flood-color="rgb(0,0,0)"
         result="flood"
         id="feFlood7173" /><feComposite
         in="flood"
         in2="SourceGraphic"
         operator="in"
         result="composite1"
         id="feComposite7175" /><feGaussianBlur
         in="composite1"
         stdDeviation="2.8"
         result="blur"
         id="feGaussianBlur7177" /><feOffset
         dx="4.7"
         dy="-6.9"
         result="offset"
         id="feOffset7179" /><feComposite
         in="SourceGraphic"
         in2="offset"
         operator="over"
         result="composite2"
         id="feComposite7181" /></filter><filter
       style="color-interpolation-filters:sRGB"
       inkscape:label="Drop Shadow"
       id="filter7183"><feFlood
         flood-opacity="0.498039"
         flood-color="rgb(0,0,0)"
         result="flood"
         id="feFlood7185" /><feComposite
         in="flood"
         in2="SourceGraphic"
         operator="in"
         result="composite1"
         id="feComposite7187" /><feGaussianBlur
         in="composite1"
         stdDeviation="2.8"
         result="blur"
         id="feGaussianBlur7189" /><feOffset
         dx="4.7"
         dy="-6.9"
         result="offset"
         id="feOffset7191" /><feComposite
         in="SourceGraphic"
         in2="offset"
         operator="over"
         result="composite2"
         id="feComposite7193" /></filter><filter
       style="color-interpolation-filters:sRGB"
       inkscape:label="Drop Shadow"
       id="filter7195"><feFlood
         flood-opacity="0.498039"
         flood-color="rgb(0,0,0)"
         result="flood"
         id="feFlood7197" /><feComposite
         in="flood"
         in2="SourceGraphic"
         operator="in"
         result="composite1"
         id="feComposite7199" /><feGaussianBlur
         in="composite1"
         stdDeviation="2.8"
         result="blur"
         id="feGaussianBlur7201" /><feOffset
         dx="4.7"
         dy="-6.9"
         result="offset"
         id="feOffset7203" /><feComposite
         in="SourceGraphic"
         in2="offset"
         operator="over"
         result="composite2"
         id="feComposite7205" /></filter></defs><sodipodi:namedview
     pagecolor="#ffffff"
     bordercolor="#666666"
     borderopacity="1"
     objecttolerance="10"
     gridtolerance="10"
     guidetolerance="10"
     inkscape:pageopacity="0"
     inkscape:pageshadow="2"
     inkscape:window-width="1366"
     inkscape:window-height="714"
     id="namedview4"
     showgrid="false"
     inkscape:zoom="0.472"
     inkscape:cx="107.16547"
     inkscape:cy="464.9865"
     inkscape:window-x="0"
     inkscape:window-y="0"
     inkscape:window-maximized="1"
     inkscape:current-layer="g10"
     fit-margin-top="0"
     fit-margin-left="0"
     fit-margin-right="0"
     fit-margin-bottom="0" /><g
     id="g10"
     inkscape:groupmode="layer"
     inkscape:label="21666-NTF971"
     transform="matrix(1.25,0,0,-1.25,869.40244,944.30783)"><g
       id="g7349"
       transform="translate(-764.12203,97.08475)"><path
         inkscape:connector-curvature="0"
         id="path7306"
         d="m 463.24806,435.27518 -43.17814,50.33101 29.20087,0 29.20086,0 0,49.60157 0,49.60157 29.17739,0 29.1774,0 0,-49.60157 0,-49.60157 29.20089,0 29.2008,0 -43.1781,-50.33101 c -23.74799,-27.68206 -43.72842,-50.33101 -44.40099,-50.33101 -0.67257,0 -20.653,22.64895 -44.40098,50.33101 z"
         style="fill:#0f3da5;fill-opacity:1" /><path
         inkscape:connector-curvature="0"
         id="path7261"
         d="m 145.84933,485.60619 0,99.20314 29.15927,0 29.15927,0 28.61703,-35.74231 c 15.73937,-19.65827 29.13769,-35.74231 29.77402,-35.74231 0.63633,0 14.03463,16.08404 29.77401,35.74231 l 28.61703,35.74231 29.15928,0 29.15926,0 0,-99.20314 0,-99.20315 -29.16027,0 -29.16025,0 -0.38186,56.45041 -0.38185,56.45043 -28.22155,-35.29682 c -15.52187,-19.41324 -28.75358,-35.2968 -29.4038,-35.2968 -0.65022,0 -13.88195,15.88356 -29.4038,35.2968 l -28.22156,35.29682 -0.38185,-56.45043 -0.38185,-56.45041 -29.16026,0 -29.16027,0 0,99.20315 z"
         style="fill:#0f3da5;fill-opacity:1" /></g><g
       id="g50"
       style="filter:url(#filter7123)"
       transform="matrix(0.80583823,0.15615653,-0.15626492,0.80555958,-660.73886,34.237889)" /><g
       id="g418"
       style="filter:url(#filter7135)"
       transform="matrix(0.80583823,0.15615653,-0.15626492,0.80555958,-660.73886,34.237889)"><g
         id="g420"
         clip-path="url(#clipPath422)"><g
           id="g426"><g
             id="g428"><path
               d="m 576.324,404.419 c -44.221,-0.386 -81.908,-9.225 -117.669,-21.15 l 0,0 c -22.8,-7.6 -41.048,-6.62 -56.839,-6.547 l 0,0 0,0.011 c -0.264,0 -0.543,-0.005 -0.807,-0.005 l 0,0 c -0.264,0 -0.539,0.005 -0.806,0.005 l 0,0 0,-0.011 c -15.792,-0.073 -34.035,-1.053 -56.84,6.547 l 0,0 c -35.76,11.925 -73.449,20.764 -117.669,21.15 l 0,0 c -68.638,0.597 -129.21,-4.035 -144.205,-6.343 l 0,0 c -15,-2.307 -12.117,-12.113 -13.267,-27.687 l 0,0 c -1.154,-15.575 1.15,-27.113 12.109,-34.611 l 0,0 c 10.963,-7.498 2.887,-42.682 19.04,-91.135 l 0,0 c 16.149,-48.456 69.791,-53.071 125.745,-55.375 l 0,0 c 55.949,-2.307 108.254,6.149 129.398,57.871 l 0,0 c 15.863,38.795 23.499,81.2 46.495,82.198 l 0,0 c 22.997,-0.998 30.632,-43.403 46.495,-82.198 l 0,0 c 21.144,-51.722 73.449,-60.178 129.399,-57.871 l 0,0 c 55.953,2.304 109.595,6.919 125.744,55.375 l 0,0 c 16.154,48.453 8.078,83.637 19.04,91.135 l 0,0 c 10.955,7.498 13.263,19.036 12.109,34.611 l 0,0 c -1.154,15.574 1.733,25.38 -13.267,27.687 l 0,0 c -14.101,2.17 -68.507,6.396 -132.021,6.396 l 0,0 c -4.028,0 -8.091,-0.017 -12.184,-0.053 M 450.231,297.131 c -13.548,47.44 1.744,64.02 10.168,68.338 l 0,0 c 9.907,5.083 78.316,27.106 154.929,20.519 l 0,0 c 93.894,-8.073 80.711,-63.694 73.792,-106.927 l 0,0 C 681.307,230.22 655.237,207.339 565.444,207.339 l 0,0 c -89.792,0 -101.657,42.357 -115.213,89.792 m -337.333,-18.07 c -6.916,43.233 -20.103,98.854 73.792,106.927 l 0,0 c 76.613,6.587 145.023,-15.436 154.929,-20.519 l 0,0 c 8.424,-4.318 23.717,-20.898 10.168,-68.338 l 0,0 c -13.556,-47.435 -25.42,-89.792 -115.213,-89.792 l 0,0 c -89.793,0 -115.863,22.881 -123.676,71.722"
               style="fill:url(#linearGradient430);stroke:none"
               id="path442"
               inkscape:connector-curvature="0" /></g></g></g></g><g
       id="g444"
       style="filter:url(#filter7147)"
       transform="matrix(0.80583823,0.15615653,-0.15626492,0.80555958,-660.73886,34.237889)"><g
         id="g446"
         clip-path="url(#clipPath448)"><g
           id="g452"><g
             id="g454" /><g
             id="g476"><g
               clip-path="url(#clipPath456)"
               id="g478"><g
                 id="g480"><g
                   clip-path="url(#clipPath460)"
                   id="g482"><g
                     id="g484"><g
                       id="g486"><path
                         d="m 374.935,302.044 c 6.807,15.769 14.489,26.79 26.075,27.293 12.824,-0.558 20.873,-14.012 28.236,-32.524 5.541,5.455 11.364,10.613 17.434,15.481 -6.526,35.894 6.271,49.352 13.718,53.176 9.908,5.082 78.317,27.104 154.93,20.518 56.055,-4.821 73.937,-26.588 77.781,-52.546 7.73,-4.33 15.174,-9.115 22.325,-14.295 1.023,8.324 2.542,14.096 6.253,16.631 10.956,7.498 13.263,19.036 12.109,34.611 -1.153,15.574 1.733,25.38 -13.267,27.687 -14.995,2.308 -75.567,6.941 -144.205,6.344 -44.22,-0.387 -81.908,-9.227 -117.669,-21.151 -22.801,-7.6 -41.048,-6.62 -56.84,-6.547 l 0,0.01 c -0.263,0 -0.542,-0.003 -0.805,-0.003 -0.265,0 -0.54,0.003 -0.807,0.003 l 0,-0.01 c -15.792,-0.073 -34.036,-1.053 -56.84,6.547 -35.76,11.924 -73.448,20.764 -117.669,21.151 -68.637,0.597 -129.21,-4.036 -144.205,-6.344 -15,-2.307 -12.117,-12.113 -13.267,-27.687 -1.154,-15.575 1.15,-27.113 12.109,-34.611 7.303,-4.998 6.182,-22.334 9.382,-47.652 6.164,5.689 12.638,11.031 19.398,16.012 -4.326,37.236 1.183,75.282 77.579,81.85 76.613,6.586 145.023,-15.436 154.93,-20.518 7.252,-3.719 19.542,-16.574 14.199,-50.312 6.601,-4.04 12.971,-8.434 19.116,-13.114"
                         style="fill:url(#linearGradient464);stroke:none"
                         id="path488"
                         inkscape:connector-curvature="0" /></g></g></g></g></g></g></g></g></g><g
       id="g490"
       style="filter:url(#filter7159)"
       transform="matrix(0.80583823,0.15615653,-0.15626492,0.80555958,-660.73886,34.237889)"><g
         id="g492"
         clip-path="url(#clipPath494)"><g
           id="g498"><g
             id="g500"><path
               d="m 456.901,367.654 c -8.691,-4.455 -24.479,-21.564 -10.489,-70.523 l 0,0 c 13.987,-48.961 26.229,-92.675 118.902,-92.675 l 0,0 c 92.679,0 119.582,23.616 127.648,74.024 l 0,0 c 7.14,44.614 20.746,102.021 -76.159,110.355 l 0,0 c -10.13,0.871 -20.129,1.257 -29.872,1.257 l 0,0 c -66.307,0.001 -121.112,-17.865 -130.03,-22.438 m -6.67,-70.523 c -13.548,47.44 1.744,64.02 10.168,68.338 l 0,0 c 9.907,5.083 78.316,27.106 154.929,20.519 l 0,0 c 93.894,-8.073 80.711,-63.694 73.792,-106.927 l 0,0 C 681.307,230.22 655.237,207.339 565.444,207.339 l 0,0 c -89.792,0 -101.657,42.357 -115.213,89.792"
               style="fill:url(#linearGradient502);stroke:none"
               id="path514"
               inkscape:connector-curvature="0" /></g></g></g></g><g
       id="g516"
       style="filter:url(#filter7171)"
       transform="matrix(0.80583823,0.15615653,-0.15626492,0.80555958,-660.73886,34.237889)"><g
         id="g518"
         clip-path="url(#clipPath520)"><g
           id="g524"><g
             id="g526"><path
               d="M 185.156,388.835 C 88.252,380.501 101.859,323.094 108.999,278.48 l 0,0 c 8.066,-50.408 34.968,-74.024 127.643,-74.024 l 0,0 c 92.676,0 104.92,43.714 118.907,92.675 l 0,0 c 13.986,48.959 -1.798,66.068 -10.489,70.523 l 0,0 c -8.918,4.573 -63.73,22.437 -130.031,22.438 l 0,0 c -9.747,0 -19.738,-0.386 -29.873,-1.257 M 112.84,279.061 c -6.919,43.233 -20.103,98.854 73.792,106.927 l 0,0 c 76.613,6.587 145.023,-15.436 154.93,-20.519 l 0,0 c 8.424,-4.318 23.716,-20.898 10.167,-68.338 l 0,0 c -13.556,-47.435 -25.42,-89.792 -115.213,-89.792 l 0,0 c -89.793,0 -115.864,22.881 -123.676,71.722"
               style="fill:url(#linearGradient528);stroke:none"
               id="path540"
               inkscape:connector-curvature="0" /></g></g></g></g><g
       id="g626"
       style="filter:url(#filter7183)"
       transform="matrix(0.80583823,0.15615653,-0.15626492,0.80555958,-660.73886,34.237889)"><g
         id="g628"
         clip-path="url(#clipPath630)"><g
           id="g634"><g
             id="g636"><path
               d="m 373.576,321.358 c -7.177,-15.589 -12.219,-50.202 -13.507,-59.743 l 0,0 c 12.432,34.175 20.787,66.847 40.94,67.722 l 0,0 c 18.801,-0.817 27.341,-29.316 38.495,-60.89 l 0,0 c -3.187,21.711 -10.467,55.489 -22.092,66.467 l 0,0 c -5.204,4.915 -10.892,7.06 -16.47,7.06 l 0,0 c -11.116,0 -21.799,-8.517 -27.366,-20.616"
               style="fill:url(#linearGradient638);stroke:none"
               id="path650"
               inkscape:connector-curvature="0" /></g></g></g></g><g
       id="g652"
       style="filter:url(#filter7195)"
       transform="matrix(0.80583823,0.15615653,-0.15626492,0.80555958,-660.73886,34.237889)"><g
         id="g654"
         clip-path="url(#clipPath656)"><g
           id="g660"><g
             id="g662"><path
               d="m 458.655,383.269 c -22.8,-7.6 -41.048,-6.62 -56.839,-6.547 l 0,0 0,0.011 c -0.264,0 -0.543,-0.005 -0.807,-0.005 l 0,0 c -0.264,0 -0.539,0.005 -0.806,0.005 l 0,0 0,-0.011 c -15.792,-0.073 -34.035,-1.053 -56.84,6.547 l 0,0 c -6.463,2.155 -13.017,4.163 -19.629,6.083 l 0,0 c 9.259,-6.087 30.672,-17.792 66.084,-24.154 l 0,0 c 38.492,-6.919 75.947,11.071 93.805,25.691 l 0,0 c -8.457,-2.344 -16.769,-4.886 -24.968,-7.62"
               style="fill:url(#linearGradient664);stroke:none"
               id="path676"
               inkscape:connector-curvature="0" /></g></g></g></g></g></svg>